<svg xmlns="http://www.w3.org/2000/svg" xml:space="preserve" viewBox="0 0 122832.3 122832.3" shape-rendering="geometricPrecision" text-rendering="geometricPrecision" image-rendering="optimizeQuality" fill-rule="evenodd" clip-rule="evenodd">
  <defs>
    <style>
      .prefix__fil4,.prefix__fil5,.prefix__fil7{fill-rule:nonzero}.prefix__fil7{fill:#4285f4}.prefix__fil5{fill:#ea4335}.prefix__fil4{fill:#fff}
    </style>
  </defs>
  <g id="prefix__Layer_x0020_1">
    <g id="prefix___2194373596352">
      <path d="M27244.9 53668h15625v10405.5h-15625z" fill="#b22234" fill-rule="nonzero"/>
      <path d="M27244.9 54868.6h15625zm15625 1600.8h-15625zm-15625 1601h15625zm15625 1600.8h-15625zm-15625 1601h15625zm15625 1600.7h-15625zm0 0" fill-rule="nonzero"/>
      <path id="prefix___1" d="M27244.9 54868.6h15625m0 1600.8h-15625m0 1601h15625m0 1600.8h-15625m0 1601h15625m0 1600.7h-15625m15625 0z" stroke="#fff" stroke-width="520.8" stroke-miterlimit="2.6" fill="none" fill-rule="nonzero"/>
      <path d="M27244.9 53668H35153v5603h-7908.2z" fill="#3c3b6e" fill-rule="nonzero"/>
      <g id="prefix__s18">
        <g id="prefix__s9">
          <g id="prefix__s5">
            <g id="prefix__s4">
              <path id="prefix__s" class="prefix__fil4" d="m27904 53908 188 579.3-493-358h609.4l-492.7 358z"/>
              <path id="prefix__s-2" class="prefix__fil4" data-name="s" d="m27904 55028.7 188 579.2-493-358h609.4l-492.7 358z"/>
              <path id="prefix__s-3" class="prefix__fil4" data-name="s" d="m27904 56149.3 188 579.2-493-358h609.4l-492.7 358z"/>
              <path id="prefix__s-4" class="prefix__fil4" data-name="s" d="m27904 57269.8 188 579.3-493-358.2h609.4l-492.7 358.2z"/>
            </g>
            <path id="prefix__s-5" class="prefix__fil4" data-name="s" d="m27904 58390.5 188 579.5-493-358.3h609.4l-492.7 358.3z"/>
          </g>
          <g id="prefix__s4-2" data-name="s4">
            <path id="prefix__s-6" class="prefix__fil4" data-name="s" d="m28562.9 54468.4 188.2 579.1-492.7-357.9h609l-492.7 358z"/>
            <path id="prefix__s-7" class="prefix__fil4" data-name="s" d="m28562.9 55589 188.2 579-492.7-357.8h609l-492.7 357.8z"/>
            <path id="prefix__s-8" class="prefix__fil4" data-name="s" d="m28562.9 56709.6 188.2 579.2-492.7-358h609l-492.7 358z"/>
            <path id="prefix__s-9" class="prefix__fil4" data-name="s" d="m28562.9 57830.1 188.2 579.3-492.7-358h609l-492.7 358z"/>
          </g>
        </g>
        <g id="prefix__s9-2" data-name="s9">
          <g id="prefix__s5-2" data-name="s5">
            <g id="prefix__s4-3" data-name="s4">
              <path id="prefix__s-10" class="prefix__fil4" data-name="s" d="m29222 53908 188 579.3-492.5-358h608.6l-492.7 358z"/>
              <path id="prefix__s-11" class="prefix__fil4" data-name="s" d="m29222 55028.7 188 579.2-492.5-358h608.6l-492.7 358z"/>
              <path id="prefix__s-12" class="prefix__fil4" data-name="s" d="m29222 56149.3 188 579.2-492.5-358h608.6l-492.7 358z"/>
              <path id="prefix__s-13" class="prefix__fil4" data-name="s" d="m29222 57269.8 188 579.3-492.5-358.2h608.6l-492.7 358z"/>
            </g>
            <path id="prefix__s-14" class="prefix__fil4" data-name="s" d="m29222 58390.5 188 579.5-492.5-358.3h608.6l-492.4 358.3z"/>
          </g>
          <g id="prefix__s4-4" data-name="s4">
            <path id="prefix__s-15" class="prefix__fil4" data-name="s" d="m29880.9 54468.4 188.2 579.1-492.7-357.9h609l-492.6 358z"/>
            <path id="prefix__s-16" class="prefix__fil4" data-name="s" d="m29880.9 55589 188.2 579-492.7-358h609l-492.6 358z"/>
            <path id="prefix__s-17" class="prefix__fil4" data-name="s" d="m29880.9 56709.6 188.2 579.2-492.7-358h609l-492.6 358z"/>
            <path id="prefix__s-18" class="prefix__fil4" data-name="s" d="m29880.9 57830.1 188.2 579.3-492.7-358h609l-492.6 358z"/>
          </g>
        </g>
      </g>
      <g id="prefix__s18-2" data-name="s18">
        <g id="prefix__s9-3" data-name="s9">
          <g id="prefix__s5-3" data-name="s5">
            <g id="prefix__s4-5" data-name="s4">
              <path id="prefix__s-19" class="prefix__fil4" data-name="s" d="m30540 53908 188.2 579.3-492.7-358h609l-492.8 358z"/>
              <path id="prefix__s-20" class="prefix__fil4" data-name="s" d="m30540 55028.7 188.2 579.2-492.7-358h609l-492.8 358z"/>
              <path id="prefix__s-21" class="prefix__fil4" data-name="s" d="m30540 56149.3 188.2 579.2-492.7-358h609l-492.8 358z"/>
              <path id="prefix__s-22" class="prefix__fil4" data-name="s" d="m30540 57269.8 188.2 579.3-492.7-358.2h609l-492.8 358z"/>
            </g>
            <path id="prefix__s-23" class="prefix__fil4" data-name="s" d="m30540 58390.5 188.2 579.5-492.7-358.3h609l-492.8 358.3z"/>
          </g>
          <g id="prefix__s4-6" data-name="s4">
            <path id="prefix__s-24" class="prefix__fil4" data-name="s" d="m31199 54468.4 188.1 579.1-492.7-357.9h609.1l-492.7 358z"/>
            <path id="prefix__s-25" class="prefix__fil4" data-name="s" d="m31199 55589 188.1 579-492.7-358h609.1l-492.7 358z"/>
            <path id="prefix__s-26" class="prefix__fil4" data-name="s" d="m31199 56709.6 188.1 579.2-492.7-358h609.1l-492.7 358z"/>
            <path id="prefix__s-27" class="prefix__fil4" data-name="s" d="m31199 57830.1 188.1 579.3-492.7-358h609.1l-492.7 358z"/>
          </g>
        </g>
        <g id="prefix__s9-4" data-name="s9">
          <g id="prefix__s5-4" data-name="s5">
            <g id="prefix__s4-7" data-name="s4">
              <path id="prefix__s-28" class="prefix__fil4" data-name="s" d="m31858 53908 188.2 579.3-492.7-358h609l-492.8 358z"/>
              <path id="prefix__s-29" class="prefix__fil4" data-name="s" d="m31858 55028.7 188.2 579.2-492.7-358h609l-492.8 358z"/>
              <path id="prefix__s-30" class="prefix__fil4" data-name="s" d="m31858 56149.3 188.2 579.2-492.7-358h609l-492.8 358z"/>
              <path id="prefix__s-31" class="prefix__fil4" data-name="s" d="m31858 57269.8 188.2 579.3-492.7-358.2h609l-492.8 358z"/>
            </g>
            <path id="prefix__s-32" class="prefix__fil4" data-name="s" d="m31858 58390.5 188.2 579.5-492.7-358h609l-492.7 358z"/>
          </g>
          <g id="prefix__s4-8" data-name="s4">
            <path id="prefix__s-33" class="prefix__fil4" data-name="s" d="m32517 54468.4 188.2 579.1-492.7-357.9h609l-492.7 358z"/>
            <path id="prefix__s-34" class="prefix__fil4" data-name="s" d="m32517 55589 188.2 579-492.8-358h609.1l-492.7 358z"/>
            <path id="prefix__s-35" class="prefix__fil4" data-name="s" d="m32517 56709.6 188.2 579.2-492.7-358h609l-492.7 358z"/>
            <path id="prefix__s-36" class="prefix__fil4" data-name="s" d="m32517 57830.1 188.2 579.3-492.7-358h609l-492.7 358z"/>
          </g>
        </g>
      </g>
      <g id="prefix__s9-5" data-name="s9">
        <g id="prefix__s5-5" data-name="s5">
          <g id="prefix__s4-9" data-name="s4">
            <path id="prefix__s-37" class="prefix__fil4" data-name="s" d="m33176 53908 188.2 579.3-492.7-358h609l-492.6 358z"/>
            <path id="prefix__s-38" class="prefix__fil4" data-name="s" d="m33176 55028.7 188.2 579.2-492.7-358h609l-492.6 358z"/>
            <path id="prefix__s-39" class="prefix__fil4" data-name="s" d="m33176 56149.3 188.2 579.2-492.7-358h609l-492.6 358z"/>
            <path id="prefix__s-40" class="prefix__fil4" data-name="s" d="m33176 57269.8 188.2 579.3-492.7-358.2h609l-492.6 358z"/>
          </g>
          <path id="prefix__s-41" class="prefix__fil4" data-name="s" d="m33176 58390.5 188.2 579.5-492.7-358h609l-492.6 358z"/>
        </g>
        <g id="prefix__s4-10" data-name="s4">
          <path id="prefix__s-42" class="prefix__fil4" data-name="s" d="m33835 54468.4 188.2 579.1-492.6-357.9h609l-492.8 358z"/>
          <path id="prefix__s-43" class="prefix__fil4" data-name="s" d="m33835 55589 188.2 579-492.6-358h609l-492.8 358z"/>
          <path id="prefix__s-44" class="prefix__fil4" data-name="s" d="m33835 56709.6 188.2 579.2-492.6-358h609l-492.8 358z"/>
          <path id="prefix__s-45" class="prefix__fil4" data-name="s" d="m33835 57830.1 188.2 579.3-492.6-358h609l-492.8 358z"/>
        </g>
      </g>
      <g id="prefix__s5-6" data-name="s5">
        <g id="prefix__s4-11" data-name="s4">
          <path id="prefix__s-46" class="prefix__fil4" data-name="s" d="m34494 53908 188.3 579.3-492.7-358h609.1l-492.7 358z"/>
          <path id="prefix__s-47" class="prefix__fil4" data-name="s" d="m34494 55028.7 188.3 579.2-492.7-358h609.1l-492.7 358z"/>
          <path id="prefix__s-48" class="prefix__fil4" data-name="s" d="m34494 56149.3 188.3 579.2-492.7-358h609.1l-492.7 358z"/>
          <path id="prefix__s-49" class="prefix__fil4" data-name="s" d="m34494 57269.8 188.3 579.3-492.8-358.2h609.1l-492.7 358z"/>
        </g>
        <path id="prefix__s-50" class="prefix__fil4" data-name="s" d="m34494 58390.5 188.3 579.5-492.7-358h609.1l-492.8 358z"/>
      </g>
      <path class="prefix__fil5" d="M65153 59048.6c0 1946.2-1522.5 3380.3-3391 3380.3s-3391-1434-3391-3380.3c0-1959.9 1522.6-3380.3 3391-3380.3s3391 1420.4 3391 3380.3m-1484.4 0c0-1216.2-882.4-2048.3-1906.6-2048.3s-1906.5 832.1-1906.5 2048.3c0 1204 882.4 2048.3 1906.5 2048.3s1906.6-845.8 1906.6-2048.3"/>
      <path d="M72468.3 59048.6c0 1946.2-1522.5 3380.3-3391 3380.3s-3391-1434-3391-3380.3c0-1958.4 1522.6-3380.3 3391-3380.3s3391 1420.4 3391 3380.3m-1484.4 0c0-1216.2-882.4-2048.3-1906.6-2048.3s-1906.5 832.1-1906.5 2048.3c0 1204 882.4 2048.3 1906.5 2048.3S70984 60251 70984 59048.6" fill="#fbbc05" fill-rule="nonzero"/>
      <path class="prefix__fil7" d="M79478.8 55872.6v6068.6c0 2496.4-1472.3 3515.9-3212.7 3515.9-1638.3 0-2624.3-1095.8-2996.2-1991.9l1292.4-538c230.1 550.2 794 1199.4 1702.3 1199.4 1114.1 0 1804.5-687.3 1804.5-1981.2v-486.2h-51.8c-332.3 410-972.3 768.2-1780 768.2-1690.2 0-3238.6-1472.3-3238.6-3366.6 0-1908 1548.4-3392.4 3238.5-3392.4 806.2 0 1446.3 358.1 1780 755.9h51.8V55874h1409.8zm-1304.6 3188.2c0-1190.2-794-2060.5-1804.4-2060.5-1024.2 0-1882.2 870.3-1882.2 2060.5 0 1178 858 2036 1882.2 2036 1010.4 0 1804.4-858 1804.4-2036"/>
      <path d="M81802.9 52315.5v9906H80355v-9906z" fill="#34a853" fill-rule="nonzero"/>
      <path class="prefix__fil5" d="m87444.8 60161.2 1152.2 768c-371.8 550.2-1268 1498.2-2816.4 1498.2-1920.3 0-3354.4-1484.4-3354.4-3380.3 0-2010.2 1446.4-3380.3 3188.3-3380.3 1754.2 0 2612.2 1396 2892.6 2150.4l154 384-4518.8 1871.6c346 678.2 884 1024.1 1638.3 1024.1 756 0 1280.2-371.8 1664.3-935.7zM83898.4 58945l3020.6-1254.3c-166.1-422.1-666-716.2-1254.3-716.2-754.3 0-1804.4 666-1766.3 1970.5"/>
      <path class="prefix__fil7" d="M52890.7 58169.3V56735h4832.7c47.2 250 71.6 545.6 71.6 865.6 0 1076-294.1 2406.5-1242 3354.4-922.1 960.2-2100.2 1472.2-3660.8 1472.2-2892.5 0-5324.9-2356-5324.9-5248.7 0-2892.5 2432.4-5248.7 5325-5248.7 1600.2 0 2740.2 627.9 3596.7 1446.3l-1012 1012c-614.2-576.1-1446.3-1024.2-2586.2-1024.2-2112.3 0-3764.4 1702.3-3764.4 3814.6s1652 3814.6 3764.4 3814.6c1370 0 2150.4-550.1 2650.2-1050 405.4-405.4 672.1-984.6 777.3-1775.5l-3427.5 1.5z"/>
    </g>
  </g>
</svg>