<svg xmlns="http://www.w3.org/2000/svg" class="icon" viewBox="0 0 8500 11000" style="width: 26px; height: 26px;">
  <defs>
    <style>
      .prefix__fil0{fill:#4f566b;fill-rule:nonzero}
    </style>
  </defs>
  <g id="prefix__Layer_x0020_1">
    <path class="prefix__fil0" d="M8510.8 5764.6c-7.2 58.7-13.3 112.5-21.7 166a19298 19298 0 0 1-89 526c-26.5-4.7-48.3-13-69-23.5-390.5-198.5-780.5-398-1171.4-595.6-90.8-45.8-177.8-94.1-236-181.6-101.4-152.4-203.8-304-304.7-456.8-101.5-154-100.2-308.8-1-463.8 65.7-102.9 130.3-206.5 195.8-309.5 43.4-68 83.2-138.9 132.1-202.7 89-116 223.6-156 354.5-201 225.4-77.5 461.8-73.8 694.5-97.3 64.6-6.6 128.7-16.7 193-25.2 7 9.8 16.2 18.8 20.4 29.7 153.5 389.6 251.7 792.2 282.2 1210.4 4.5 60.8 8.5 121.7 16.5 185 3.8 146.8 3.8 290.8 3.8 439.9"/>
    <path d="M4503.6 9750.6c-156.5-.2-308.2-.6-464.9-.4-369.2-12-724.8-74-1072.5-182.2a3940 3940 0 0 1-959-446.7c-496.6-318-909.6-723.5-1250.2-1203.1a3893 3893 0 0 1-583.6-1230c-66.6-242.4-115.7-488.7-130.2-740-11.7-204-24.4-409-18.1-613.1 15.3-497.2 115.6-977.8 306.9-1438.7 154.7-372.9 363.8-712.6 613.2-1028.7a49 49 0 0 1 25.4-17.3c7.9 21.8 9.8 41.4 9.8 61 .5 244.6-1.2 489 1.8 733.5 1.6 133.3 36.7 260.7 109.1 372.3a49548 49548 0 0 0 589.3 888.9c79.5 117 164 232.5 259.7 336.1 203 219.7 448.5 383.7 714.7 519.5 260.7 133 517.9 272.7 775 412.2 109.5 59.3 205 139 244 261.2a977 977 0 0 1 44.4 257.3c6.8 181.3-4 363.4 5.9 544.5 4.3 79.4 26.7 166 67.4 233.2 60.6 100.3 151.1 182 217.6 279.4 151.8 222.3 262.4 459.6 254.8 739.6-4.8 173.9.6 348.3 8.4 522.2 6.4 144.4 133 286.8 274.8 305.7 70.7 9.5 145-1.2 217-9.3C4905 9291.8 5000 9217 5037 9078c30.4-114.2 56.3-229.5 86-343.8 87.4-336.1 174.4-672.3 265.2-1007.4 11.6-42.9 40-84.5 70-118.4 57-64.4 120.1-123.7 182-183.8 134-130 226.2-283.7 254.2-469.3 20.1-132.9 18.3-266.8-61-384.3a1187 1187 0 0 0-131.3-162.6c-324.7-334.3-342.3-353-833.6-348-267.8 2.8-535.8-2.6-803.5 2.5-76.6 1.5-124.8-28.7-168.4-83.6a18733 18733 0 0 0-287.5-355.9c-59.8-71.6-134.9-112-233.2-114.6-77.9-2-159.8-9.4-232-36-135.6-50-266-114.6-397.6-175-88.8-40.9-136.7-108.1-124.6-210 11.3-94.7 66.3-152 154.4-180.7 163.6-53.3 328.2-104 490.8-160 116.8-40.3 218.2-19.6 310 59.6 23.2 20 48 38.5 68.3 61 68.8 75.9 151.2 104.5 254.4 95.7 107.6-9.2 154.7-59.3 134.1-165-3.7-19-13-37.2-21.4-55-81.5-169.9-163.8-339.4-244.7-509.7a190 190 0 0 1-14.8-61.6c-4.6-45.8 15.9-80 46-115.2 107-125 222.4-221.3 404.6-189 30.8 5.5 72.6-24.4 102.4-47 42.6-32.4 78.6-73.5 118-110.3 78.6-73.6 78.4-148.3-.6-226.9-24.1-24-49.3-47.3-70.1-74-56.3-71.8-52.1-122.6 13-188.4 79.6-80.5 158-162.3 239.9-240.6 112.7-107.8 107.2-312.1-4.2-415.6-102.6-95.3-199.5-197-298-296.7-182.1-184.4-149.7-153.8-390.9-156.4q-8.1 0-16.2.6c-82.9 5.6-142.9 50-164.8 130.2a599 599 0 0 0-20.1 137.6c-4.8 151-221.6 263.2-348.4 209.8a1006 1006 0 0 1-298-190.1c-171-159.1-340.9-319.2-512.3-477.7-69.7-64.5-142.3-126-213.5-188.7 250.4-120.7 504.8-231.8 774-304.7 242.2-65.6 486.7-121.7 738.3-136.3 166.4-9.6 333-19 499.7-20.2 307.8-2 610.7 41.5 910.2 111 665.6 154.7 1250 467 1770.9 905.2 449.3 378 797.2 834.2 1054.2 1360.7 38.4 78.7 68.5 161.5 101.8 246.3a2236 2236 0 0 1-193.8 29c-232.7 23.7-469.1 19.9-694.5 97.3-131 45-265.6 85.1-354.5 201.1-48.9 63.9-88.7 134.7-132 202.8-65.6 103-130.2 206.6-196 309.4-99 155-100.4 309.9 1.1 463.8 100.9 152.8 203.3 304.5 304.7 456.9 58.2 87.4 145.2 135.7 236 181.6 391 197.5 781 397 1171.4 595.6a523 523 0 0 0 67.8 27.4c-23.2 105-46.5 211.7-78 315.9a4072 4072 0 0 1-610.2 1223.4c-195.4 268.4-420.8 508.8-672.3 725.2-287.4 247.2-598.4 458.5-940 623.6-338 163.3-691 282.2-1061.4 343-174.7 28.6-352.2 39.7-533.4 59z" fill="#a3acb9" fill-rule="nonzero"/>
    <path class="prefix__fil0" d="M2336.1 1735.2a4837 4837 0 0 1 217 187.1c171.4 158.6 341.3 318.7 512.2 477.8a1006 1006 0 0 0 298.1 190.1c126.8 53.4 343.6-58.8 348.4-209.8a599 599 0 0 1 20.1-137.6c22-80.2 82-124.6 164.8-130.3a203 203 0 0 1 16.2-.5c241.2 2.6 208.8-28 390.8 156.4 98.6 99.7 195.5 201.3 298.1 296.7 111.4 103.4 116.9 307.8 4.2 415.6-81.8 78.3-160.3 160-240 240.6-65 65.8-69.2 116.5-13 188.4 21 26.7 46.1 50 70.2 74 79 78.5 79.2 153.3.5 226.9-39.3 36.8-75.3 77.9-117.9 110.3-29.8 22.6-71.6 52.5-102.4 47-182.2-32.3-297.7 64-404.6 189-30.1 35.1-50.6 69.4-46 115.2 2.1 20.9 6 42.9 14.8 61.6 80.9 170.2 163.2 339.8 244.7 509.8 8.5 17.7 17.7 35.9 21.4 54.9 20.6 105.7-26.5 155.7-134.1 165-103.2 8.7-185.6-19.9-254.4-95.7-20.4-22.5-45.1-41-68.2-61-92-79.2-193.3-100-310-59.7-162.7 56.1-327.3 106.8-490.9 160-88.1 28.8-143 86.1-154.4 180.7-12.1 102 35.8 169.2 124.6 210 131.7 60.5 262 125 397.6 175 72.2 26.7 154.1 34 232 36.1 98.3 2.6 173.4 43 233.2 114.6a19251 19251 0 0 1 287.5 355.8c43.6 55 91.8 85.2 168.4 83.7 267.7-5.1 535.7.3 803.5-2.5 491.3-5 508.9 13.7 833.6 348a1187 1187 0 0 1 131.2 162.6c79.4 117.5 81.2 251.4 61.1 384.3-28 185.6-120.2 339.3-254.1 469.3-62 60-125 119.3-182.2 183.8-30 34-58.3 75.5-69.9 118.4-90.8 335.1-177.8 671.3-265.1 1007.3-29.8 114.4-55.7 229.7-86.1 343.9-37 139.1-132.1 213.8-272.6 229.7-72 8-146.4 18.7-217.1 9.3-141.8-18.9-268.4-161.3-274.8-305.7-7.8-173.9-13.2-348.3-8.4-522.2 7.6-280-103-517.3-254.8-739.6-66.5-97.4-157-179-217.6-279.4-40.7-67.3-63-153.9-67.4-233.3-9.9-181 1-363-5.9-544.4A977 977 0 0 0 3674 6435c-39-122.1-134.5-201.8-244-261-257.1-139.6-514.3-279.4-775-412.3-266.2-135.8-511.6-299.8-714.7-519.5-95.8-103.6-180.2-219.2-259.7-336.1a49548 49548 0 0 1-589.3-889c-72.4-111.5-107.5-239-109.1-372.2-3-244.5-1.3-489-1.8-733.4 0-19.7-1.9-39.3-6.2-62 60.1-80 120.5-159.9 187.5-233.7 334-367.7 729.4-654.3 1174.4-880.6"/>
  </g>
</svg>