<svg xmlns="http://www.w3.org/2000/svg" viewBox="0 0 64 64">
  <g data-name="News Icon">
    <path d="M14 12h44a2 2 0 0 1 2 2v34a4 4 0 0 1-4 4H13.7a1.7 1.7 0 0 1-1.7-1.7V14a2 2 0 0 1 2-2" style="fill:#a3adba"/>
    <path style="fill:#a3adba" d="M8.02 44.1h7.9V52h-7.9z"/>
    <path d="M6 24h6v24a4 4 0 0 1-4 4 4 4 0 0 1-4-4V26a2 2 0 0 1 2-2" style="fill:#183153"/>
    <path d="M25.67 26.85h-2.33l-3.76-6.48h-.06c.08 1.14.12 2 .12 2.45v4H18v-8.54h2.31l3.76 6.42c-.06-1.12-.09-1.9-.09-2.36v-4.06h1.65Zm7.33 0h-5v-8.57h5v1.49h-3.13v1.88h2.93v1.49h-2.93v2.21H33Zm11.4 0h-2.09l-1.17-4.5c0-.16-.12-.49-.22-1s-.17-.84-.19-1c0 .22-.08.55-.17 1s-.17.8-.22 1l-1.17 4.49h-2.08l-2.21-8.57h1.81l1.1 4.73a23 23 0 0 1 .42 2.24c0-.22.08-.57.17-1a9 9 0 0 1 .24-1.09l1.26-4.8h1.73l1.26 4.8c.06.22.13.54.21 1s.14.82.19 1.13c0-.3.1-.68.19-1.14s.16-.82.23-1.1l1.1-4.68h1.81Zm9.31-2.38a2.23 2.23 0 0 1-.85 1.83 3.7 3.7 0 0 1-2.34.67 5.7 5.7 0 0 1-2.46-.52v-1.69a10.6 10.6 0 0 0 1.49.55 4.6 4.6 0 0 0 1.11.16 1.6 1.6 0 0 0 .92-.23.78.78 0 0 0 .33-.68.72.72 0 0 0-.15-.45 1.5 1.5 0 0 0-.41-.38c-.19-.12-.56-.31-1.12-.58a4.9 4.9 0 0 1-1.23-.71 2.6 2.6 0 0 1-.64-.79 2.2 2.2 0 0 1-.23-1 2.22 2.22 0 0 1 .77-1.79 3.3 3.3 0 0 1 2.16-.65 5 5 0 0 1 1.28.16 8 8 0 0 1 1.28.44l-.59 1.41a11 11 0 0 0-1.14-.39 4 4 0 0 0-.89-.11 1.18 1.18 0 0 0-.8.24.78.78 0 0 0-.28.63.8.8 0 0 0 .11.42 1.3 1.3 0 0 0 .36.34 11 11 0 0 0 1.16.6 4.8 4.8 0 0 1 1.67 1.15 2.3 2.3 0 0 1 .49 1.37m-35.55 7.34h16.76v13.45H18.16zm34.41 2.64h-14a1.25 1.25 0 0 1 0-2.5h14a1.25 1.25 0 0 1 0 2.5m0 5.4h-14a1.25 1.25 0 0 1 0-2.5h14a1.25 1.25 0 0 1 0 2.5m0 5.4h-14a1.25 1.25 0 1 1 0-2.5h14a1.25 1.25 0 0 1 0 2.5" style="fill:#183153"/>
  </g>
</svg>