<svg xmlns="http://www.w3.org/2000/svg" class="icon" viewBox="0 0 8500 11000" style="width: 26px; height: 26px;">
  <path d="M4324.4 11013.5c-41 0-82 0-132.4-3.8-174-33-294.4-121.7-389.6-259.8-874.5-1270.2-1753-2537.6-2627.3-3807.8-259.5-377-516.1-756.5-689.5-1184-140.7-346.8-286.3-691.2-320.1-1070.8-46.2-517.7-31-1031.7 85.7-1539.1 176.3-766.7 566.4-1413.8 1124-1962 448.5-441.2 964.5-780 1568.6-966.1 242.1-74.5 494.9-115 743.8-166.3 98.1-20.2 199-27.2 298.6-40.3 180.7 0 361.3 0 552.2 4 128.9 15.8 248.3 22.8 366.1 40.3 541.8 80.4 1050.1 258.1 1514.4 549 427.4 267.8 797 603.4 1109 1000.5 319.7 406.7 558.7 855 699.3 1354.7 90.2 320.6 144.5 647.6 150.4 979.2 5 283.1 5.5 570-33.4 849.5-72.4 520-277.5 1002.4-547 1445.5-340.2 559.8-718 1097.2-1088.6 1638-662.4 966.9-1331.6 1929-1997.7 2893.4-61.7 89.4-139.3 159.7-240 201-47.1 19.2-97.6 30.2-146.5 45zm1818-7737c-79.2-130.8-147.6-270-239.8-390.9-253.4-332.3-575.7-579.5-976.9-705.3-505.3-158.5-1008.7-145-1499 67-399.6 172.7-707 455.8-933.6 823.4-265.3 430.4-336 901.9-265 1398.1 76.2 534.1 346.7 957 757.9 1291.8 323.3 263.3 699.8 404.8 1117.2 430.7 316.4 19.6 624.7-16.1 922.1-133.5 310.8-122.6 569.2-315.2 790.2-563.5 351-394.5 510.9-859 507-1381.6-2-286.2-54.7-564.5-180.1-836.2" fill="#a3acb9" fill-rule="nonzero"/>
  <path d="M4369.5 2768.7c595.6 67.3 1000.6 388.3 1192.3 937.6 187.7 538 47.9 1021.7-360 1421.7-296.2 290.3-656.8 413.2-1066.7 378.3-386.4-32.9-697.6-217-939-515.8-375.4-464.8-421.6-1068.1-99.5-1568 292.5-454 715.4-686.2 1273-653.8" fill="#50566b" fill-rule="nonzero"/>
</svg>